<?xml version="1.0" standalone="no"?>
<!DOCTYPE svg PUBLIC "-//W3C//DTD SVG 20010904//EN"
 "http://www.w3.org/TR/2001/REC-SVG-20010904/DTD/svg10.dtd">
<svg version="1.0" xmlns="http://www.w3.org/2000/svg"
 width="1536.000000pt" height="1024.000000pt" viewBox="0 0 1536.000000 1024.000000"
 preserveAspectRatio="xMidYMid meet">

<g transform="translate(0.000000,1024.000000) scale(0.100000,-0.100000)"
fill="#000000" stroke="none">
<path d="M0 5120 l0 -5120 7680 0 7680 0 0 5120 0 5120 -7680 0 -7680 0 0
-5120z m7930 3936 c186 -37 355 -95 553 -188 112 -53 133 -71 51 -43 -78 26
-331 73 -464 85 -193 18 -387 0 -550 -52 -122 -39 -187 -72 -285 -145 -162
-120 -257 -227 -287 -321 -12 -40 -13 -41 -73 -47 -33 -3 -106 -13 -162 -22
-56 -9 -109 -13 -117 -10 -21 8 -21 83 -1 161 75 287 408 534 802 596 93 14
435 5 533 -14z m335 -356 c131 -28 312 -88 412 -138 284 -143 524 -385 670
-675 55 -111 154 -403 125 -372 -5 6 -40 53 -79 105 -211 289 -448 516 -638
612 -60 31 -178 78 -194 78 -5 0 19 -28 53 -62 34 -35 124 -146 201 -248 95
-126 193 -239 305 -355 230 -237 307 -338 404 -532 60 -119 117 -298 140 -438
34 -209 34 -217 -8 -92 -52 155 -158 341 -271 477 -86 103 -292 304 -395 386
-186 149 -314 296 -509 584 -61 91 -136 191 -166 222 -106 109 -257 184 -428
214 -177 31 -335 -10 -471 -121 -31 -25 -64 -45 -73 -45 -34 0 -183 33 -183
40 0 23 104 141 169 193 123 98 289 164 469 187 109 14 354 3 467 -20z m-469
-425 c98 -29 147 -107 146 -234 0 -162 -60 -313 -147 -367 -29 -19 -29 -19
-21 1 42 101 59 175 59 265 1 98 -7 124 -46 168 -56 61 -170 -8 -273 -166 -32
-48 -78 -109 -103 -135 l-46 -48 24 -42 c111 -196 169 -338 207 -512 24 -109
24 -320 0 -435 -52 -243 -145 -410 -431 -765 -188 -233 -228 -287 -286 -381
-117 -192 -196 -391 -240 -604 -20 -96 -24 -145 -24 -301 0 -183 0 -186 -18
-160 -96 141 -146 331 -154 586 -6 186 11 293 69 438 73 182 172 305 470 586
157 147 224 233 298 380 111 220 137 436 81 667 -21 86 -69 214 -80 214 -3 0
-7 -53 -7 -118 -3 -234 -66 -370 -244 -526 -68 -59 -214 -132 -306 -151 -90
-19 -232 -19 -314 1 -36 8 -98 31 -138 50 -41 20 -76 33 -79 31 -3 -3 13 -29
34 -59 65 -88 143 -206 143 -217 0 -24 -233 -148 -323 -172 -65 -17 -189 -13
-273 11 -79 21 -252 96 -317 137 -67 42 -102 175 -74 274 18 59 36 81 146 178
67 59 72 66 69 100 -4 42 -28 53 -59 25 -17 -16 -29 -16 -112 -8 -110 12 -179
2 -224 -32 l-33 -25 0 34 c0 26 11 46 48 88 85 97 165 163 453 368 65 45 147
107 183 137 l66 54 -2 58 c-2 106 72 207 237 322 99 68 262 145 361 170 82 21
252 40 364 40 131 0 234 -46 348 -157 35 -35 66 -63 67 -63 2 0 15 20 29 45
66 112 228 231 346 254 65 13 71 13 126 -4z m518 -417 c33 -24 102 -90 155
-148 183 -199 247 -263 391 -390 80 -70 175 -161 211 -201 226 -254 343 -498
379 -789 34 -285 -35 -563 -203 -809 -48 -71 -266 -301 -284 -301 -5 0 17 51
48 114 65 132 128 315 160 466 19 88 23 136 23 290 0 161 -3 196 -22 268 -60
223 -181 436 -467 822 -156 211 -238 330 -355 510 -51 80 -113 172 -138 204
l-46 59 45 -26 c24 -14 71 -46 103 -69z m-130 -385 c330 -264 641 -718 742
-1083 93 -333 30 -681 -178 -975 -76 -109 -282 -319 -395 -404 -46 -34 -83
-60 -83 -57 0 2 23 42 52 88 121 195 224 446 272 659 88 401 48 755 -138 1202
-80 194 -231 469 -317 577 -22 27 -36 50 -33 50 4 0 39 -26 78 -57z m-161
-240 c196 -264 328 -540 388 -813 30 -140 37 -412 14 -551 -47 -282 -152 -499
-336 -693 -104 -111 -206 -196 -419 -351 -228 -167 -266 -198 -383 -313 l-99
-97 27 60 c64 146 163 297 304 464 208 246 266 321 346 441 209 315 301 586
311 925 5 142 2 194 -15 312 -29 194 -105 454 -187 642 -39 87 -33 84 49 -26z
m-155 -195 c94 -287 128 -548 102 -779 -22 -205 -75 -380 -171 -570 -90 -175
-191 -313 -384 -519 -239 -256 -305 -340 -374 -475 -55 -106 -97 -238 -119
-370 l-19 -110 -31 95 c-44 138 -56 236 -49 419 8 233 62 424 174 616 91 158
160 240 429 510 246 247 347 436 401 755 17 102 24 403 10 478 -4 23 -5 42 -3
42 2 0 18 -42 34 -92z m-2612 -319 c37 -23 38 -25 80 -219 50 -232 51 -223
-19 -132 -56 73 -82 123 -96 190 -12 57 -15 182 -5 182 4 0 22 -9 40 -21z
m541 -553 c199 -54 288 -91 347 -139 l30 -24 -60 -7 c-174 -22 -313 -114 -345
-230 -12 -44 -17 -43 -122 12 -81 42 -156 110 -188 172 -21 39 -24 59 -23 147
0 130 5 137 94 130 36 -2 156 -30 267 -61z m558 -592 c-70 -162 -95 -307 -95
-553 0 -250 32 -402 120 -575 22 -43 40 -81 40 -84 0 -13 -113 105 -157 163
-54 71 -114 189 -136 265 -41 141 -41 324 -1 461 20 68 75 178 122 244 39 55
134 166 139 162 1 -2 -13 -39 -32 -83z m-2085 -1891 c41 -8 105 -23 141 -34
l66 -20 7 -46 c3 -25 6 -97 6 -160 l0 -114 -26 3 c-22 2 -29 11 -39 43 -32
109 -112 197 -213 236 -123 46 -305 34 -411 -28 -107 -62 -195 -193 -232 -343
-21 -82 -18 -318 4 -400 53 -198 171 -334 338 -390 83 -29 223 -24 312 9 l57
22 0 170 c0 225 -5 234 -137 254 -38 6 -43 10 -43 33 l0 27 275 0 275 0 0 -27
c0 -21 -5 -28 -20 -28 -11 0 -36 -7 -56 -15 -56 -23 -64 -55 -64 -270 l0 -186
-42 -18 c-24 -10 -90 -31 -148 -47 -98 -27 -117 -29 -295 -29 -169 0 -199 3
-270 23 -162 47 -299 145 -383 274 -75 115 -109 261 -99 421 12 189 69 319
192 442 92 92 177 145 289 181 140 44 345 51 516 17z m5295 13 c62 -6 215 -42
226 -54 4 -4 10 -73 14 -154 l7 -148 -30 0 c-28 0 -31 4 -48 55 -35 112 -108
192 -198 216 -22 6 -77 9 -122 7 -72 -3 -88 -7 -126 -33 -80 -56 -110 -161
-69 -251 29 -64 93 -110 286 -204 197 -96 277 -150 323 -213 42 -60 56 -111
56 -202 -1 -111 -29 -179 -103 -254 -101 -104 -209 -141 -411 -141 -123 0
-203 14 -315 52 l-70 24 -7 84 c-3 47 -7 119 -9 160 l-2 75 35 3 c33 3 35 1
47 -40 31 -104 101 -192 186 -236 66 -34 207 -43 282 -18 85 28 143 107 143
196 0 117 -51 165 -321 301 -218 110 -277 154 -325 249 -24 47 -28 67 -29 140
0 99 16 148 75 226 44 58 108 105 188 134 56 21 173 39 227 34 17 -2 57 -5 90
-8z m2015 -22 l107 -25 6 -82 c4 -45 7 -115 7 -154 l0 -73 -28 0 c-26 0 -30 5
-46 60 -46 151 -136 220 -289 220 -110 -1 -180 -37 -219 -115 -43 -83 -18
-190 59 -255 21 -17 121 -73 224 -125 248 -125 306 -170 348 -267 39 -90 35
-211 -10 -305 -28 -58 -99 -135 -154 -168 -141 -82 -417 -88 -633 -13 -35 12
-67 29 -72 38 -4 8 -10 80 -11 160 l-4 145 32 3 c28 3 32 0 43 -35 59 -183
179 -275 359 -274 70 0 92 4 138 26 67 33 104 85 111 155 8 84 -4 117 -63 176
-43 43 -83 68 -211 130 -263 126 -339 189 -379 312 -24 71 -17 189 15 255 48
101 142 177 269 218 89 28 267 26 401 -7z m-5787 -71 c4 -38 7 -105 7 -150 l0
-83 -28 0 c-24 0 -30 6 -45 51 -22 62 -88 131 -143 150 -27 10 -90 14 -208 14
l-170 0 2 -255 2 -255 112 -3 c190 -5 245 18 272 109 11 36 18 44 37 44 l24 0
3 -202 2 -203 -24 0 c-21 0 -26 7 -36 49 -6 28 -22 59 -37 72 -23 23 -32 24
-189 27 l-164 3 0 -250 0 -251 25 -16 c22 -14 49 -16 198 -12 151 4 178 7 222
27 81 36 132 95 170 193 16 44 20 47 44 41 14 -3 27 -6 28 -7 1 -1 -10 -79
-25 -174 l-26 -172 -518 0 -518 0 0 28 c0 27 4 30 55 41 37 8 61 20 75 38 19
25 20 39 20 538 0 348 -4 522 -11 544 -12 35 -33 49 -99 66 -38 9 -45 15 -48
38 l-3 27 494 0 494 0 6 -67z m670 30 c18 -20 86 -98 152 -173 66 -75 233
-265 370 -424 l250 -288 3 386 c1 254 -1 394 -8 406 -13 24 -60 49 -120 65
-38 9 -45 15 -48 38 l-3 27 235 0 236 0 0 -24 c0 -21 -9 -27 -65 -46 -114 -38
-105 20 -105 -666 l0 -594 -53 0 -52 0 -121 138 c-66 75 -253 288 -415 472
-162 185 -309 353 -326 375 l-33 40 0 -428 c0 -460 1 -468 52 -495 13 -7 46
-19 73 -26 43 -10 50 -16 53 -39 l3 -27 -234 0 -234 0 5 30 c2 17 10 30 18 30
7 0 35 7 61 16 89 29 83 -11 83 563 0 484 -1 507 -20 538 -24 41 -51 57 -122
78 -50 14 -58 20 -58 41 l0 24 195 0 196 0 32 -37z m2197 -30 c0 -38 3 -105 7
-150 l6 -83 -29 0 c-26 0 -32 8 -62 70 -59 126 -117 150 -362 150 l-150 0 0
-260 0 -260 114 0 c129 0 211 13 238 36 10 9 26 40 37 68 13 37 25 52 40 54
21 3 21 2 21 -203 l0 -206 -22 3 c-17 2 -25 14 -34 49 -6 26 -15 52 -19 59
-19 30 -74 40 -225 40 l-150 0 0 -249 c0 -306 -17 -281 186 -281 149 0 224 10
279 36 53 25 112 92 142 161 24 56 31 63 55 63 16 0 28 -5 28 -13 0 -17 -49
-297 -56 -319 -5 -17 -38 -18 -515 -18 l-509 0 0 28 c0 27 4 30 54 41 98 22
91 -22 91 581 0 570 0 568 -54 589 -14 6 -42 14 -61 19 -28 6 -36 14 -38 35
l-3 27 495 0 496 0 0 -67z m1970 42 c0 -21 -7 -27 -54 -40 -98 -29 -91 16 -91
-579 0 -286 3 -533 8 -548 8 -31 32 -46 96 -63 37 -9 45 -15 48 -38 l4 -27
-276 0 -275 0 0 30 c0 17 5 30 13 30 32 0 92 24 113 45 l24 24 0 521 c0 587 3
567 -72 594 -24 8 -52 16 -63 18 -13 2 -21 12 -23 31 l-3 27 275 0 276 0 0
-25z m-6080 -1780 c0 -5 -14 -18 -30 -27 l-30 -17 0 -225 c0 -191 2 -227 16
-240 8 -9 22 -16 30 -16 8 0 14 -7 14 -15 0 -12 -19 -15 -115 -15 -96 0 -115
3 -115 15 0 8 8 15 18 15 39 0 42 16 42 258 l0 233 -30 10 c-16 6 -30 16 -30
22 0 9 35 12 115 12 70 0 115 -4 115 -10z m444 -112 c55 -65 127 -149 159
-186 l58 -69 -3 164 -3 163 -32 14 c-59 26 -39 36 64 34 103 -2 127 -13 69
-33 l-36 -12 0 -259 0 -259 -24 0 c-18 0 -63 46 -205 211 l-181 210 0 -178 c0
-98 4 -183 8 -190 4 -6 20 -15 35 -18 15 -4 27 -13 27 -21 0 -11 -21 -14 -100
-14 -80 0 -100 3 -100 14 0 8 13 17 30 21 16 4 33 11 36 17 10 16 15 389 6
423 -5 17 -22 39 -40 50 -50 32 -39 40 49 38 l81 -1 102 -119z m1028 49 c3
-83 -9 -94 -39 -35 -22 46 -53 63 -115 63 l-48 0 0 -236 0 -236 30 -11 c17 -6
30 -17 30 -24 0 -10 -28 -13 -115 -13 -87 0 -115 3 -115 13 0 7 14 18 30 24
l30 11 0 237 0 237 -60 -4 c-67 -5 -88 -19 -106 -70 -20 -61 -34 -45 -34 39
l0 78 254 0 255 0 3 -73z m598 26 c0 -25 3 -53 6 -62 4 -12 0 -16 -15 -16 -12
0 -21 6 -21 15 0 9 -11 27 -25 40 -22 22 -32 25 -105 25 l-80 0 0 -105 0 -105
48 1 c69 1 95 12 110 42 7 15 17 25 23 22 11 -7 12 -175 1 -175 -5 0 -15 15
-23 33 -14 31 -15 32 -86 35 l-73 3 0 -104 c0 -130 2 -132 106 -124 86 6 117
23 141 72 20 43 45 47 37 8 -3 -16 -8 -48 -12 -73 l-8 -45 -212 -3 c-180 -2
-212 0 -212 12 0 8 10 18 23 22 12 4 25 12 29 18 4 6 8 111 8 234 l0 223 -30
17 c-16 9 -30 22 -30 27 0 6 73 10 200 10 l200 0 0 -47z m679 41 c37 -8 50
-15 55 -32 9 -35 7 -127 -3 -127 -5 0 -19 21 -31 46 -30 61 -69 84 -143 84
-97 0 -154 -46 -183 -147 -35 -119 0 -257 79 -314 33 -24 50 -29 99 -29 93 0
98 6 98 104 0 88 -4 96 -51 96 -10 0 -19 7 -19 15 0 12 19 15 115 15 115 0
137 -7 90 -28 -24 -11 -25 -16 -25 -97 0 -77 -2 -86 -23 -99 -75 -50 -219 -64
-316 -31 -68 22 -141 92 -159 151 -15 52 -16 170 0 215 28 82 90 144 177 175
44 16 173 18 240 3z m708 -16 c43 -25 63 -63 63 -117 0 -64 -27 -110 -77 -133
-21 -10 -39 -18 -41 -19 -2 -1 26 -45 63 -98 69 -99 102 -132 142 -142 12 -4
23 -13 23 -21 0 -13 -13 -15 -70 -11 -90 5 -110 20 -185 143 -57 93 -89 123
-119 112 -7 -3 -9 -40 -6 -108 5 -102 6 -104 33 -117 47 -23 20 -32 -94 -32
-82 0 -109 3 -109 13 0 7 14 18 30 24 l30 11 0 232 0 231 -30 17 c-16 9 -30
22 -30 27 0 15 349 3 377 -12z m732 -233 c90 -240 98 -256 128 -270 61 -28 41
-40 -67 -40 -83 0 -100 3 -100 15 0 9 6 18 14 21 16 6 8 43 -24 120 l-20 45
-91 -3 -92 -3 -28 -70 c-15 -38 -25 -73 -23 -77 3 -4 20 -10 39 -14 20 -3 35
-12 35 -20 0 -11 -22 -14 -105 -14 -79 0 -105 3 -105 13 0 7 13 18 30 24 40
15 57 46 162 306 93 228 93 228 122 225 28 -3 31 -9 125 -258z m561 245 c0 -5
-14 -18 -30 -27 l-30 -17 0 -231 0 -230 83 0 c96 0 137 19 164 75 29 61 40 44
29 -45 l-9 -80 -213 0 c-184 0 -214 2 -214 15 0 8 6 15 14 15 8 0 22 7 30 16
14 13 16 48 16 229 0 117 -3 221 -6 230 -4 8 -20 23 -36 31 -16 8 -27 18 -24
22 7 11 226 8 226 -3z m812 -10 c12 -40 9 -105 -6 -105 -8 0 -17 9 -21 20 -13
42 -53 60 -131 60 l-74 0 0 -105 0 -105 44 0 c58 0 97 15 103 40 3 11 12 20
19 20 11 0 14 -18 14 -75 0 -41 0 -78 1 -82 0 -4 -4 -9 -10 -11 -6 -2 -11 5
-11 16 0 38 -27 52 -96 52 l-64 0 0 -110 0 -110 26 -6 c41 -10 146 4 174 24
14 10 32 32 40 50 20 43 44 43 36 0 -3 -18 -8 -52 -12 -75 l-7 -43 -213 0
c-167 0 -214 3 -214 13 0 7 14 18 30 24 l30 11 0 232 0 231 -30 17 c-16 9 -30
22 -30 27 0 6 72 10 197 10 189 0 198 -1 205 -20z m591 10 c14 -6 17 -20 17
-76 0 -53 -3 -69 -14 -69 -8 0 -19 15 -26 34 -22 67 -86 103 -152 86 -31 -9
-43 -18 -54 -45 -26 -62 -2 -91 131 -158 80 -40 121 -79 135 -127 20 -71 -33
-166 -107 -191 -64 -21 -205 -11 -250 19 -6 4 -15 40 -18 80 -7 63 -6 72 9 72
9 0 21 -12 26 -27 31 -84 68 -113 143 -113 40 0 54 5 78 29 37 37 39 82 5 116
-13 13 -59 41 -102 63 -90 45 -128 79 -145 129 -22 67 9 135 79 173 32 18 51
20 132 16 52 -2 103 -7 113 -11z"/>
<path d="M6345 7707 c-86 -29 -255 -127 -255 -148 0 -5 19 -2 41 6 23 8 57 15
76 15 l35 0 -59 -66 c-32 -37 -86 -95 -120 -130 -70 -70 -78 -90 -35 -80 27 7
86 46 176 116 38 30 68 43 125 56 95 21 140 44 166 84 26 41 80 72 185 106 47
15 89 31 95 36 5 4 -25 8 -65 8 -41 0 -131 2 -200 5 -90 4 -136 1 -165 -8z"/>
<path d="M7798 1719 c-2 -61 0 -113 5 -116 4 -2 28 -1 55 3 69 10 112 56 112
119 0 38 -5 52 -29 76 -25 25 -37 29 -85 29 l-55 0 -3 -111z"/>
<path d="M8571 1719 c-5 -13 -20 -53 -35 -88 -14 -36 -26 -70 -26 -78 0 -10
19 -13 75 -13 l75 0 -35 97 c-20 53 -38 99 -40 101 -2 3 -9 -6 -14 -19z"/>
</g>
</svg>
